<?xml version="1.0" standalone="no"?>
<!DOCTYPE svg PUBLIC "-//W3C//DTD SVG 20010904//EN"
 "http://www.w3.org/TR/2001/REC-SVG-20010904/DTD/svg10.dtd">
<svg version="1.0" xmlns="http://www.w3.org/2000/svg"
 width="864.000000pt" height="1152.000000pt" viewBox="0 0 864.000000 1152.000000"
 preserveAspectRatio="xMidYMid meet">

<g transform="translate(0.000000,1152.000000) scale(0.100000,-0.100000)"
fill="#000000" stroke="none">
<path d="M4490 9745 c-8 -2 -32 -6 -53 -10 -25 -4 -35 -10 -30 -18 4 -7 0 -6
-10 2 -14 11 -23 11 -42 3 -14 -7 -25 -17 -25 -23 0 -7 10 -5 26 6 14 9 28 15
30 12 9 -9 -27 -37 -47 -37 -11 0 -29 -16 -44 -40 -15 -24 -30 -37 -39 -34 -7
3 -16 -2 -19 -10 -4 -9 -16 -16 -27 -16 -11 0 -20 -6 -20 -12 0 -10 -3 -10 -9
0 -7 11 -17 9 -49 -12 -23 -14 -50 -26 -60 -26 -9 0 -28 -7 -40 -16 -19 -13
-25 -14 -39 -2 -13 10 -17 10 -20 1 -3 -7 -14 -13 -26 -13 -11 0 -49 -27 -87
-62 -36 -35 -80 -74 -98 -88 -184 -141 -351 -441 -412 -735 -22 -105 -39 -224
-46 -315 -3 -36 -9 -89 -13 -117 -6 -42 -5 -53 6 -53 7 0 13 -4 13 -10 0 -5
-7 -10 -15 -10 -8 0 -15 -4 -15 -10 0 -5 -8 -10 -17 -11 -10 0 -13 -3 -7 -5 7
-3 10 -15 7 -27 -4 -17 -2 -19 5 -8 8 11 11 9 14 -10 6 -45 22 -24 50 64 30
94 41 199 25 232 -7 13 -6 20 2 23 6 2 11 12 11 22 0 10 5 22 10 25 16 10 11
28 -6 21 -12 -5 -15 -1 -10 22 18 95 18 110 -1 115 -16 4 -16 5 -1 6 19 1 34
42 24 66 -3 9 -2 13 4 10 6 -4 7 11 3 41 -4 34 -3 45 5 40 7 -4 10 -2 6 7 -6
16 34 127 45 127 11 0 55 101 52 119 -1 7 2 10 8 6 6 -3 11 0 11 9 0 8 3 16 8
18 10 4 62 85 62 97 0 5 4 11 8 13 5 2 25 28 44 59 30 46 69 86 143 142 43 33
185 121 207 129 14 5 29 16 32 24 3 8 12 14 20 14 8 0 22 7 30 16 9 8 16 12
16 7 0 -12 69 -5 97 9 12 6 20 15 17 20 -3 4 8 8 25 8 16 0 32 -4 35 -8 2 -4
44 -7 93 -6 48 1 90 -1 93 -5 3 -3 23 -14 44 -24 29 -13 41 -15 46 -7 8 13 50
-3 50 -20 0 -4 13 -11 30 -15 16 -4 32 -11 35 -16 4 -5 14 -9 24 -9 23 0 80
-28 105 -52 11 -10 28 -18 38 -18 11 0 30 -11 44 -25 20 -20 26 -22 30 -10 9
21 21 19 49 -10 18 -17 25 -20 25 -9 0 12 9 14 42 9 52 -8 53 -9 119 -65 66
-56 124 -114 169 -168 19 -23 39 -41 45 -41 29 3 43 -3 41 -18 0 -10 6 -18 14
-18 10 0 25 -30 44 -90 17 -49 36 -94 43 -98 7 -4 13 -15 13 -23 0 -9 12 -36
26 -60 23 -39 26 -52 20 -95 -4 -27 -9 -56 -12 -64 -5 -11 -2 -13 10 -9 9 3
16 1 16 -5 0 -6 -4 -11 -10 -11 -5 0 -10 -22 -10 -50 0 -27 5 -50 10 -50 6 0
10 5 10 10 0 25 19 6 23 -22 3 -28 4 -27 3 6 0 22 4 41 9 43 6 2 11 -28 12
-70 1 -42 -1 -64 -6 -53 -7 17 -8 18 -14 3 -3 -9 -2 -19 3 -22 6 -4 10 -17 10
-31 0 -17 -4 -23 -12 -18 -8 5 -9 -3 -5 -29 4 -28 2 -39 -10 -46 -10 -5 -14
-16 -11 -29 4 -13 0 -23 -9 -26 -8 -3 -11 -11 -7 -18 5 -8 2 -9 -9 -5 -19 7
-19 6 -21 -101 -1 -66 0 -71 11 -45 12 27 13 27 9 3 -3 -25 -11 -50 -24 -80
-4 -8 -6 -62 -4 -119 3 -96 4 -102 19 -82 11 16 13 36 9 69 -4 31 -3 40 3 27
10 -22 9 -25 30 80 56 281 71 504 46 663 -15 92 -16 114 -5 127 9 10 14 51 15
114 2 54 8 107 14 119 18 33 13 101 -9 137 -11 18 -37 51 -58 73 -20 22 -42
47 -49 54 -21 23 -42 38 -53 38 -5 0 -10 12 -10 28 0 15 -5 34 -11 42 -8 11
-9 7 -5 -17 3 -18 4 -33 2 -33 -3 0 -15 17 -27 37 -15 24 -19 38 -11 41 16 5
-36 80 -67 96 -14 8 -50 17 -79 21 -44 6 -60 14 -97 51 -25 24 -51 44 -58 44
-6 1 -28 14 -47 30 -19 17 -39 30 -45 30 -6 0 -29 13 -51 30 -21 16 -45 30
-51 30 -7 0 -13 4 -13 9 0 5 -7 12 -16 15 -8 3 -12 2 -9 -4 3 -6 -1 -10 -9
-10 -8 0 -18 5 -21 10 -3 6 -15 10 -26 10 -11 0 -18 4 -14 9 3 6 -16 12 -42
16 -27 3 -89 12 -139 20 -90 15 -104 16 -134 10z m850 -330 c14 -8 21 -14 16
-15 -5 0 -3 -7 4 -15 11 -13 7 -15 -24 -15 -20 0 -36 5 -36 11 0 6 9 8 22 3
20 -6 21 -5 9 10 -7 9 -22 16 -32 16 -11 0 -19 5 -19 10 0 14 31 12 60 -5z
m45 -66 c12 -18 -3 -22 -20 -5 -14 14 -14 16 -1 16 8 0 18 -5 21 -11z m220
-280 c24 -45 13 -59 -13 -17 -24 39 -27 48 -12 48 5 0 17 -14 25 -31z m-5
-519 c0 -5 -2 -10 -4 -10 -3 0 -8 5 -11 10 -3 6 -1 10 4 10 6 0 11 -4 11 -10z
m-2279 -303 c-10 -9 -11 -8 -5 6 3 10 9 15 12 12 3 -3 0 -11 -7 -18z m-4 -49
c-3 -8 -6 -5 -6 6 -1 11 2 17 5 13 3 -3 4 -12 1 -19z m2226 -96 c-3 -12 -9
-22 -14 -22 -14 0 -11 38 4 43 16 6 17 5 10 -21z m-2238 -32 c-6 -9 -9 -9 -16
1 -10 17 0 34 13 21 6 -6 7 -16 3 -22z m2242 -212 c-3 -7 -5 -2 -5 12 0 14 2
19 5 13 2 -7 2 -19 0 -25z"/>
<path d="M3710 8649 c0 -6 -7 -8 -16 -5 -8 3 -32 -3 -52 -13 -49 -25 -136
-117 -128 -137 3 -7 2 -14 -2 -14 -14 0 -53 -138 -55 -190 -1 -28 -5 -50 -9
-50 -4 0 -5 -6 -2 -14 4 -9 28 -17 69 -21 62 -7 63 -7 74 -46 13 -43 4 -41
186 -58 70 -6 127 -7 157 -1 57 11 148 49 148 61 0 11 -3 11 -35 -1 -38 -15
-123 -21 -130 -10 -3 6 -1 10 6 10 9 0 9 4 -1 15 -6 8 -8 20 -4 27 4 7 -2 5
-14 -5 -20 -19 -21 -18 -15 4 5 18 3 21 -10 16 -11 -4 -17 -1 -17 9 0 10 8 15
23 14 12 -1 39 -2 60 -1 33 1 38 4 44 31 3 17 9 30 13 30 10 0 45 -40 34 -40
-5 0 -1 -5 9 -11 20 -11 117 -3 117 10 0 5 -9 16 -20 26 -31 28 -13 36 28 12
20 -12 39 -25 40 -29 6 -14 22 -9 22 7 0 8 9 20 20 27 11 7 20 21 20 32 0 11
6 27 13 35 7 9 20 36 27 61 8 25 18 48 23 51 14 10 -1 59 -18 59 -8 0 -23 9
-32 20 -10 11 -23 20 -30 20 -7 0 -13 6 -13 13 0 13 -59 40 -95 44 -11 1 -67
6 -125 12 -140 14 -237 14 -263 0 -16 -9 -22 -9 -25 0 -5 14 -22 15 -22 0z
m159 -149 c23 -6 41 -13 39 -15 -4 -4 -155 -35 -168 -35 -3 0 2 5 10 11 11 8
6 9 -20 4 -26 -5 -31 -4 -20 4 8 6 11 11 6 11 -20 0 14 23 46 30 35 8 37 8
107 -10z m131 -85 l45 -29 -44 -7 c-47 -6 -140 15 -153 35 -5 7 -8 4 -8 -6 0
-10 -4 -18 -10 -18 -5 0 -10 7 -10 15 0 9 -9 15 -22 14 -13 0 -17 -3 -10 -6 6
-2 12 -8 12 -13 0 -6 -31 -6 -69 -1 -11 2 11 13 60 31 76 28 150 23 209 -15z"/>
<path d="M4788 8543 c-10 -3 -18 -9 -18 -14 0 -5 -11 -9 -24 -9 -13 0 -26 -3
-28 -7 -1 -5 -16 -15 -33 -23 -21 -11 -30 -23 -30 -40 0 -14 -3 -30 -7 -36 -4
-6 4 -27 17 -47 28 -40 31 -58 14 -85 -16 -25 14 -72 46 -72 13 0 31 -3 40 -6
14 -6 14 -9 -5 -29 l-21 -23 43 -20 c24 -11 51 -22 61 -25 9 -4 17 -10 17 -14
0 -4 24 -8 53 -8 77 -1 89 -8 76 -44 -8 -23 -17 -31 -42 -33 -84 -8 -14 -60
129 -96 80 -20 110 -23 122 -15 9 6 16 16 14 22 -1 6 5 11 13 11 8 0 18 12 21
26 6 25 10 26 53 21 41 -5 44 -4 26 9 -18 13 -17 14 12 14 39 0 47 18 19 49
l-21 24 35 -5 c19 -3 41 -3 47 -1 26 9 -11 253 -39 253 -4 0 -15 15 -24 33
-10 17 -19 26 -21 19 -3 -6 -9 -9 -14 -6 -6 3 -5 12 3 22 11 13 10 15 -9 10
-15 -4 -31 2 -48 18 -14 13 -30 25 -36 25 -5 1 -13 3 -19 4 -5 1 -20 3 -32 4
-15 1 -19 4 -11 9 8 5 -12 15 -50 26 -34 9 -69 20 -77 23 -16 7 -60 12 -99 13
-13 0 -29 4 -35 8 -6 5 -22 9 -36 10 -14 1 -34 3 -45 5 -11 2 -28 2 -37 0z
m378 -218 c44 -5 55 -11 85 -48 22 -27 33 -50 31 -65 -2 -12 -8 -20 -13 -17
-5 4 -9 1 -9 -5 0 -6 -14 2 -31 19 -41 42 -58 39 -25 -4 42 -55 71 -150 43
-139 -8 3 -13 14 -13 25 1 12 -11 27 -29 37 -16 9 -35 23 -43 30 -7 6 -22 12
-32 12 -10 0 -21 4 -24 9 -3 5 -29 12 -58 15 -57 7 -82 18 -76 32 1 5 -14 10
-34 12 -48 4 -50 25 -5 53 25 16 43 19 82 15 34 -4 45 -2 35 4 -8 5 -24 10
-35 11 l-20 0 20 8 c19 8 43 7 151 -4z m148 -141 c9 -24 2 -26 -12 -4 -7 11
-8 20 -3 20 5 0 12 -7 15 -16z m31 -94 c3 -5 1 -10 -4 -10 -6 0 -11 5 -11 10
0 6 2 10 4 10 3 0 8 -4 11 -10z"/>
<path d="M5561 8254 c0 -11 3 -14 6 -6 3 7 2 16 -1 19 -3 4 -6 -2 -5 -13z"/>
<path d="M5526 8225 c-3 -9 -6 -26 -5 -38 1 -14 4 -9 9 13 9 37 7 52 -4 25z"/>
<path d="M4956 8043 c-6 -14 -5 -15 5 -6 7 7 10 15 7 18 -3 3 -9 -2 -12 -12z"/>
<path d="M3183 8000 c3 -24 -1 -77 -10 -119 -8 -42 -17 -87 -20 -101 -3 -18 6
-9 31 30 20 30 36 61 36 70 0 8 7 24 15 34 28 37 11 92 -37 117 -20 11 -21 9
-15 -31z"/>
<path d="M3256 7860 c-5 -34 -11 -50 -21 -50 -22 0 -28 -39 -21 -142 12 -202
14 -298 4 -304 -6 -4 -6 -9 -1 -13 5 -3 1 -14 -8 -23 -17 -16 -20 -12 -58 64
-33 65 -41 92 -41 136 l0 54 -67 -6 c-92 -10 -290 -59 -388 -98 -319 -124
-598 -386 -971 -912 -302 -426 -424 -567 -544 -631 -41 -22 -89 -50 -107 -62
-17 -13 -34 -23 -38 -23 -4 0 -50 -36 -103 -79 -54 -44 -126 -95 -162 -114
-36 -19 -114 -60 -175 -92 -203 -106 -362 -207 -477 -303 l-78 -64 0 -2599 0
-2599 900 0 c795 0 899 2 894 15 -4 8 -13 15 -21 15 -8 0 -22 18 -31 40 -9 22
-23 40 -29 40 -7 0 -13 9 -13 19 0 10 -11 29 -25 42 -13 13 -25 30 -25 37 0 6
-7 12 -15 12 -7 0 -18 7 -23 16 -5 9 -13 16 -18 16 -22 1 -55 19 -61 33 -6 18
20 72 54 112 13 14 23 30 23 34 0 9 69 121 80 129 3 3 19 23 35 45 74 102 152
172 230 209 22 10 80 25 129 32 49 8 94 18 100 22 6 5 29 16 51 24 22 9 69 30
105 46 83 38 82 38 224 62 88 14 140 29 195 56 42 20 108 41 146 48 l70 12
-32 14 c-18 8 -33 20 -33 26 0 6 -6 17 -14 23 -24 20 -29 100 -5 85 5 -3 9 4
9 14 0 12 9 22 23 26 34 9 85 7 92 -4 3 -5 12 -7 20 -3 8 3 26 2 40 -1 17 -4
23 -11 18 -23 -5 -13 -3 -15 13 -8 10 4 46 15 79 24 33 9 65 19 70 22 6 4 24
10 42 13 17 4 37 13 43 21 24 29 64 26 186 -14 66 -21 156 -44 200 -50 43 -7
90 -14 102 -17 15 -3 21 -1 17 6 -11 17 60 11 117 -10 29 -11 77 -38 107 -61
30 -23 68 -49 85 -58 68 -38 82 -45 95 -47 24 -4 125 -46 184 -77 42 -22 56
-34 52 -46 -3 -10 4 -22 18 -30 22 -14 22 -14 3 8 -23 26 -13 28 19 3 34 -27
17 -51 -25 -35 -16 6 -32 7 -35 3 -7 -11 -2 -14 83 -40 40 -12 79 -29 88 -37
8 -9 25 -13 39 -11 15 3 26 0 29 -9 3 -8 16 -14 28 -13 13 1 25 1 28 0 22 -8
50 -8 50 0 0 5 7 7 15 4 8 -4 15 -1 15 5 0 6 5 11 11 11 6 0 9 -6 6 -14 -4
-10 0 -14 13 -13 10 1 16 5 14 9 -3 4 2 8 10 8 9 0 16 5 16 11 0 5 4 8 9 4 6
-3 14 3 20 12 7 12 10 13 11 4 0 -10 6 -10 26 4 36 23 98 15 123 -17 31 -37
36 -86 12 -112 -14 -15 -21 -36 -21 -60 0 -26 -8 -48 -25 -68 -39 -46 -56
-117 -44 -187 5 -32 8 -108 6 -168 -1 -70 2 -115 9 -124 6 -8 17 -38 24 -66
l12 -53 1784 0 1784 0 0 1041 0 1040 -27 35 -26 35 26 -6 c17 -5 27 -3 27 3 0
6 -16 14 -35 18 -29 5 -43 17 -76 66 -32 46 -39 65 -35 86 5 18 4 22 -3 13 -9
-14 -31 -7 -31 10 0 5 -9 18 -21 30 -11 11 -18 23 -15 26 2 3 41 -7 86 -22 45
-15 84 -25 86 -22 6 6 -77 37 -148 57 -26 7 -49 19 -53 28 -3 8 2 37 11 64 9
27 14 52 11 54 -3 3 -8 -8 -12 -25 -9 -44 -25 -28 -25 25 0 29 4 44 13 44 6 0
47 -11 90 -25 108 -35 110 -34 130 27 9 28 12 47 8 42 -5 -5 -14 -26 -21 -46
-6 -21 -15 -38 -19 -38 -4 0 -50 14 -104 30 -59 19 -97 36 -97 44 0 7 7 33 15
56 8 24 13 45 11 47 -2 2 -10 -13 -16 -34 -7 -21 -15 -42 -18 -47 -10 -18 -19
29 -11 52 5 13 9 31 8 40 -1 10 -4 7 -8 -7 -8 -31 -27 -38 -35 -14 -9 27 -111
131 -189 192 -37 29 -65 57 -61 62 3 5 -2 6 -10 3 -11 -4 -16 0 -16 11 0 9 -5
13 -10 10 -11 -7 -111 47 -130 70 -10 13 -9 15 11 16 21 1 21 2 4 6 -23 6 -65
47 -65 64 0 7 -3 10 -6 6 -7 -7 -114 110 -124 138 -51 129 -94 236 -106 263
-7 17 -10 32 -6 32 9 0 187 -47 392 -103 91 -25 262 -71 380 -102 118 -31 223
-59 233 -61 16 -5 17 9 17 188 l0 193 -253 64 c-138 35 -277 69 -307 76 -30 7
-125 32 -210 55 -85 23 -174 46 -198 50 -23 5 -51 14 -61 20 -11 5 -30 10 -43
10 -13 0 -59 10 -103 21 -44 11 -102 26 -129 33 -52 13 -75 39 -76 88 0 15 34
264 76 555 43 301 73 543 70 563 -4 26 -3 30 4 15 7 -16 9 -11 11 25 4 76 6
94 13 115 5 13 2 11 -8 -5 -16 -26 -20 -22 -16 18 1 12 -3 22 -9 22 -5 0 -12
-10 -14 -22 -2 -13 -3 -3 -1 22 2 25 -1 52 -6 60 -7 11 -10 5 -10 -25 0 -22
-9 -87 -20 -145 -11 -58 -22 -132 -25 -165 -3 -33 -10 -89 -15 -125 -6 -36
-33 -222 -60 -415 -58 -402 -58 -405 -72 -405 -5 0 -8 6 -5 13 7 17 -46 107
-127 217 -81 110 -176 249 -176 258 -1 4 -11 20 -24 36 l-24 28 29 43 c38 57
86 156 138 285 53 134 113 225 232 348 52 54 108 118 124 142 17 25 33 47 38
48 4 2 7 9 7 15 0 7 -23 -13 -50 -43 -51 -57 -69 -52 -24 7 14 18 21 33 15 33
-6 0 -14 -6 -18 -14 -7 -12 -91 -105 -249 -276 -28 -30 -56 -64 -63 -75 -11
-18 -12 -17 -6 8 3 15 1 27 -5 27 -5 0 -10 -4 -10 -10 0 -5 -4 -10 -10 -10 -5
0 -7 7 -4 15 5 12 0 12 -26 5 -40 -11 -44 -15 -35 -30 4 -7 18 -10 32 -7 48 9
51 -36 11 -138 -78 -197 -141 -325 -160 -325 -3 0 -25 22 -47 49 -41 48 -41
49 -41 131 0 96 -21 140 -68 140 l-27 0 25 20 c22 17 25 27 28 100 3 54 0 85
-8 95 -7 9 -10 18 -7 21 9 9 -86 90 -135 114 l-47 23 -53 -21 c-47 -19 -61
-20 -123 -12 -72 10 -145 12 -112 3 14 -4 18 -12 14 -29 -2 -13 1 -25 7 -28 6
-2 3 -5 -7 -5 -10 -1 -28 4 -40 11 -19 10 -20 9 -9 -4 23 -28 61 -27 122 4 41
20 66 27 84 22 38 -9 32 -31 -16 -55 -24 -12 -50 -28 -60 -36 -13 -12 -28 -13
-95 -3 -43 7 -97 14 -120 17 -39 5 -43 8 -43 34 0 16 4 29 8 29 10 0 32 45 32
66 0 8 -13 17 -31 21 -35 7 -41 17 -69 125 -22 85 -25 112 -11 103 5 -3 22 -7
38 -9 71 -10 125 -19 213 -37 246 -50 284 -56 301 -52 32 9 21 24 -13 20 -18
-2 -25 -2 -15 0 11 3 17 11 14 21 -3 18 -5 18 -50 7 -17 -5 -27 -3 -27 4 0 6
9 11 20 11 11 0 20 5 20 10 0 6 -9 10 -20 10 -11 0 -20 5 -20 10 0 6 -9 10
-20 10 -11 0 -20 -4 -20 -9 0 -12 -41 -18 -70 -10 l-25 7 28 1 c42 2 32 18
-15 26 -24 4 -59 13 -78 21 -19 7 -59 15 -88 18 -29 3 -59 9 -65 15 -7 5 -43
15 -81 22 -64 11 -69 13 -83 47 -8 20 -17 51 -20 70 l-6 33 54 -6 c30 -3 232
-23 449 -45 578 -57 689 -69 852 -86 82 -9 160 -13 175 -9 16 4 22 10 16 12
-19 7 -16 44 5 60 15 12 14 13 -13 12 -16 -1 -41 -1 -55 0 -20 1 -22 3 -10 11
8 5 26 10 40 10 25 1 25 1 3 10 -13 5 -46 5 -80 0 -65 -11 -206 -13 -216 -4
-3 3 -39 8 -79 10 -40 2 -109 8 -153 14 -44 5 -192 21 -330 36 -137 14 -286
30 -330 34 -44 5 -142 15 -218 21 -135 13 -138 13 -143 38 -4 14 -17 65 -30
113 -13 48 -24 92 -24 99 0 8 15 10 53 5 72 -9 783 -89 1122 -126 154 -17 305
-35 335 -40 30 -4 85 -11 123 -15 l67 -7 1 -31 c0 -30 1 -31 10 -9 13 33 61
82 72 75 6 -3 16 2 24 12 7 11 13 16 13 12 0 -4 17 0 37 8 20 9 43 13 50 11 7
-3 16 2 21 10 6 10 26 17 57 19 74 5 76 21 3 33 -151 26 -208 21 -244 -22
l-22 -25 -178 20 c-99 11 -336 38 -529 60 -192 22 -487 56 -655 75 -168 19
-326 37 -352 40 -41 6 -50 11 -66 42 -25 48 -44 59 -77 44 -14 -6 -28 -20 -32
-29 -7 -20 -51 -63 -65 -63 -5 0 -13 10 -19 23 -6 12 -30 33 -54 46 l-44 23
-27 -21 c-15 -11 -32 -21 -38 -21 -23 0 -75 66 -116 149 -38 77 -41 86 -29
110 22 44 23 47 2 29 -24 -22 -33 -23 -33 -3 0 8 -4 15 -10 15 -5 0 -10 -7
-10 -15 0 -9 -9 -15 -24 -15 -13 0 -29 -7 -37 -16 -8 -10 -23 -14 -40 -12 -18
3 -25 0 -22 -8 3 -8 -11 -15 -39 -19 -48 -8 -90 -39 -81 -62 4 -11 0 -14 -18
-11 -17 2 -27 -3 -34 -19 -5 -13 -15 -23 -22 -23 -14 0 -116 -61 -121 -72 -2
-5 -9 -8 -15 -8 -7 0 -27 -14 -46 -32 -24 -23 -44 -32 -68 -32 -18 0 -33 -4
-33 -8 0 -4 -51 -8 -113 -8 -77 0 -117 -4 -125 -12 -10 -10 -15 -10 -22 2 -6
10 -29 15 -74 15 -35 1 -70 6 -78 12 -7 6 -29 13 -50 16 -37 6 -148 55 -159
71 -4 5 -11 6 -17 2 -5 -3 -25 12 -43 33 -86 98 -99 115 -99 126 0 7 -9 20
-20 30 -11 10 -20 24 -20 30 0 7 -7 26 -15 41 -8 16 -15 36 -15 45 0 27 -27
73 -33 57 -4 -9 -16 -2 -37 22 -17 19 -36 34 -41 32 -6 -1 -8 6 -5 16 4 12 -1
25 -14 37 -11 10 -20 23 -20 28 0 6 -8 20 -19 31 -20 23 -41 78 -41 109 0 15
5 18 26 14 23 -4 25 -3 18 27 -4 17 -15 41 -24 53 -10 13 -21 44 -24 70 -4 27
-9 55 -12 65 -3 9 6 27 18 41 27 29 41 20 52 -34 3 -20 17 -45 31 -57 14 -12
25 -26 25 -32 0 -5 7 -10 15 -10 8 0 15 -6 15 -13 0 -8 9 -22 21 -33 17 -15
23 -16 40 -6 17 11 29 8 82 -20 34 -18 64 -36 65 -40 2 -5 11 -8 20 -8 39 -1
95 -28 99 -48 3 -25 -25 -37 -78 -33 -21 1 -40 -2 -44 -8 -3 -6 -2 -11 3 -11
5 0 19 -9 32 -20 13 -11 32 -20 44 -20 16 0 18 -2 7 -9 -9 -6 -12 -18 -7 -37
4 -19 3 -24 -2 -15 -8 11 -11 11 -18 0 -4 -7 -3 -14 4 -17 7 -2 12 -17 12 -34
0 -32 32 -67 63 -68 9 0 17 -4 17 -9 0 -10 57 -20 155 -27 39 -2 75 -5 80 -6
16 -2 119 24 131 33 6 5 29 15 50 23 l39 15 -50 1 c-27 0 -70 6 -95 11 -25 6
-58 10 -74 10 -29 0 -29 0 -10 18 11 10 25 20 31 22 7 3 6 8 -3 17 -10 9 -14
9 -14 1 0 -8 -4 -9 -13 0 -23 19 -126 71 -140 71 -8 0 -22 9 -32 20 -10 11
-26 20 -37 20 -10 0 -18 7 -18 16 0 8 -4 12 -10 9 -6 -3 -10 5 -10 19 0 26 6
27 55 7 20 -8 31 -9 33 -2 5 14 56 14 80 2 9 -6 49 -17 87 -26 91 -20 335 -18
335 4 0 10 -8 12 -30 7 -17 -3 -42 -1 -57 5 -19 7 -33 7 -49 -1 -16 -9 -33 -8
-74 4 -30 9 -80 16 -112 16 -66 0 -98 12 -98 38 0 14 -9 17 -52 16 -29 0 -63
-6 -76 -13 -39 -21 -55 -7 -49 40 7 55 31 89 57 82 15 -4 19 -11 15 -27 -5
-16 2 -13 27 15 38 41 61 41 79 0 l13 -28 20 22 c19 20 26 21 64 13 33 -7 45
-16 53 -35 l10 -26 15 21 c12 17 25 22 60 22 37 0 46 -4 56 -25 10 -22 13 -23
32 -10 30 22 53 18 72 -10 15 -23 17 -23 39 -9 20 13 24 13 38 0 22 -22 30
-84 16 -117 -9 -23 -9 -32 1 -44 6 -8 9 -19 5 -24 -3 -6 0 -8 8 -6 9 4 12 16
9 37 -4 26 -2 30 12 25 25 -10 137 18 196 48 39 20 59 24 86 19 19 -3 37 -10
40 -15 9 -15 34 -10 56 11 12 11 35 26 51 32 29 13 31 30 11 82 -5 14 -4 17 5
12 9 -6 10 0 5 21 -9 34 -44 91 -84 135 -52 58 -65 73 -66 78 -3 19 -18 39
-25 35 -4 -3 -17 11 -28 32 -19 36 -78 105 -111 130 -28 21 -11 -57 20 -97 54
-68 190 -318 190 -347 0 -31 -22 -40 -47 -21 -7 6 -28 7 -47 4 -29 -6 -43 -1
-83 28 -61 43 -133 68 -174 59 -27 -5 -31 -4 -26 10 6 15 1 16 -34 11 -30 -5
-44 -3 -50 7 -8 12 -11 12 -22 -1 -12 -16 -80 -24 -71 -9 3 5 0 9 -5 9 -6 0
-11 -5 -11 -10 0 -15 -43 -30 -55 -19 -5 5 -20 9 -34 9 -13 0 -22 3 -18 6 3 4
-10 20 -29 38 -46 40 -155 75 -139 44 4 -7 1 -6 -7 2 -10 13 -42 16 -159 19
-139 2 -217 -7 -243 -31 -17 -14 -54 -9 -60 8 -5 13 -15 15 -42 11 -32 -5 -34
-4 -22 10 11 15 11 16 -4 10 -37 -13 -15 17 87 120 57 58 102 110 99 115 -3 5
-13 3 -22 -5 -26 -23 -79 -47 -102 -47 -11 0 -20 -4 -20 -9 0 -5 -8 -11 -17
-15 -10 -3 -25 -10 -33 -15 -23 -14 -62 -29 -95 -36 -16 -4 -24 -10 -17 -12
26 -10 11 -31 -27 -37 -26 -4 -41 -12 -44 -24 -4 -16 -5 -16 -6 1 -1 18 -31
25 -31 7 0 -5 -5 -10 -11 -10 -6 0 -9 6 -6 14 15 37 -60 49 -92 15 -19 -20
-31 -71 -29 -114 1 -11 0 -45 -1 -75 l-3 -55 -14 80 c-9 57 -11 99 -4 145 10
72 24 400 17 400 -2 0 -7 -22 -11 -50z m244 -356 c0 -8 -4 -12 -10 -9 -5 3
-10 10 -10 16 0 5 5 9 10 9 6 0 10 -7 10 -16z m-606 -76 c-8 -69 -14 -74 -14
-11 0 43 5 63 17 63 1 0 0 -24 -3 -52z m91 42 c-3 -5 -10 -10 -16 -10 -5 0 -9
5 -9 10 0 6 7 10 16 10 8 0 12 -4 9 -10z m-35 -55 c0 -9 -6 -12 -15 -9 -8 4
-15 10 -15 15 0 5 7 9 15 9 8 0 15 -7 15 -15z m-93 -11 c-3 -3 -12 -4 -19 -1
-8 3 -5 6 6 6 11 1 17 -2 13 -5z m25 -74 c-2 -16 -6 -30 -8 -30 -2 0 -4 14 -4
30 0 17 4 30 8 30 5 0 7 -13 4 -30z m-22 -127 c-8 -42 -16 -71 -18 -64 -5 16
19 153 26 146 3 -2 -1 -39 -8 -82z m424 -32 c5 -55 5 -55 -9 14 -15 78 -18
116 -5 71 5 -15 11 -53 14 -85z m763 -27 c-3 -3 -12 -4 -19 -1 -8 3 -5 6 6 6
11 1 17 -2 13 -5z m-1223 -138 c-10 -58 -20 -103 -22 -101 -3 3 3 52 13 110
10 58 20 103 23 101 2 -3 -4 -52 -14 -110z m-477 44 c-5 -28 -12 -48 -15 -46
-7 8 8 96 17 96 5 0 4 -23 -2 -50z m-20 -82 c-3 -8 -6 -5 -6 6 -1 11 2 17 5
13 3 -3 4 -12 1 -19z m-34 -133 c-32 -118 -33 -119 -39 -113 -5 5 42 183 53
201 13 22 9 -6 -14 -88z m504 13 c-3 -7 -5 -2 -5 12 0 14 2 19 5 13 2 -7 2
-19 0 -25z m-17 -65 c-11 -17 -11 -17 -6 0 3 10 7 26 7 35 1 15 2 15 6 0 2
-10 -1 -25 -7 -35z m-3 -45 c-3 -8 -6 -5 -6 6 -1 11 2 17 5 13 3 -3 4 -12 1
-19z m2400 -40 c-3 -8 -6 -5 -6 6 -1 11 2 17 5 13 3 -3 4 -12 1 -19z m-2933
-32 c-3 -15 -8 -25 -11 -23 -2 3 -1 17 3 31 3 15 8 25 11 23 2 -3 1 -17 -3
-31z m513 -28 c-3 -7 -5 -2 -5 12 0 14 2 19 5 13 2 -7 2 -19 0 -25z m-681 -13
c17 -13 16 -14 -13 -4 -34 11 -42 19 -20 19 7 0 22 -7 33 -15z m151 -17 c-3
-8 -6 -5 -6 6 -1 11 2 17 5 13 3 -3 4 -12 1 -19z m-62 -10 c7 -7 1 -8 -20 -4
-16 4 -34 12 -40 18 -7 7 -1 8 20 4 17 -4 35 -12 40 -18z m55 -18 c0 -5 8 -10
17 -10 9 0 14 -3 10 -6 -8 -9 -67 6 -67 17 0 5 9 9 20 9 11 0 20 -4 20 -10z
m-10 -39 c0 -6 -4 -13 -10 -16 -5 -3 -10 1 -10 9 0 9 5 16 10 16 6 0 10 -4 10
-9z m107 -7 c-3 -3 -12 -4 -19 -1 -8 3 -5 6 6 6 11 1 17 -2 13 -5z m-133 -58
c-3 -15 -8 -25 -11 -23 -2 3 -1 17 3 31 3 15 8 25 11 23 2 -3 1 -17 -3 -31z
m206 24 c0 -5 -4 -10 -10 -10 -5 0 -10 5 -10 10 0 6 5 10 10 10 6 0 10 -4 10
-10z m3070 -105 c-30 -30 -59 -55 -64 -55 -6 0 14 25 44 55 30 30 59 55 64 55
6 0 -14 -25 -44 -55z m233 35 c19 -22 23 -60 7 -60 -6 0 -13 7 -17 16 -3 8
-11 13 -18 10 -13 -5 -25 14 -25 40 0 21 33 17 53 -6z m-3536 -22 c-3 -8 -6
-5 -6 6 -1 11 2 17 5 13 3 -3 4 -12 1 -19z m438 -18 c3 -5 1 -10 -4 -10 -6 0
-11 5 -11 10 0 6 2 10 4 10 3 0 8 -4 11 -10z m3024 -32 c0 -35 -2 -39 -9 -21
-8 19 -3 63 6 63 2 0 4 -19 3 -42z m-570 -67 c1 -39 6 -58 19 -67 16 -12 15
-13 -8 -14 -25 0 -25 1 -26 93 0 51 3 81 7 67 4 -14 7 -49 8 -79z m700 -77
c29 -111 29 -112 -16 -104 -30 4 -38 10 -36 25 9 123 16 176 23 169 4 -5 17
-45 29 -90z m-570 12 c-9 -8 -89 -13 -89 -6 0 5 19 10 43 12 41 3 54 1 46 -6z
m61 4 c0 -5 -9 -10 -21 -10 -11 0 -17 5 -14 10 3 6 13 10 21 10 8 0 14 -4 14
-10z m-180 -92 c0 -62 -5 -60 -13 5 -4 28 -3 47 3 47 6 0 10 -23 10 -52z m620
-74 c0 -15 -6 -24 -15 -24 -11 0 -15 11 -15 36 0 31 2 35 15 24 8 -7 15 -23
15 -36z m-613 -46 c-2 -13 -4 -3 -4 22 0 25 2 35 4 23 2 -13 2 -33 0 -45z
m-3497 42 c0 -5 -4 -10 -10 -10 -5 0 -10 5 -10 10 0 6 5 10 10 10 6 0 10 -4
10 -10z m3960 -20 c0 -5 16 -12 35 -16 33 -6 35 -9 35 -45 0 -43 -7 -46 -49
-25 -35 19 -61 57 -61 91 0 23 2 24 20 15 11 -6 20 -15 20 -20z m268 -35 c7
-6 31 -109 27 -116 -3 -4 -20 -3 -38 1 -17 5 -53 14 -79 21 l-48 12 0 49 0 50
68 -7 c37 -4 68 -9 70 -10z m-721 -62 c-3 -10 -5 -2 -5 17 0 19 2 27 5 18 2
-10 2 -26 0 -35z m10 -55 c-3 -7 -5 -2 -5 12 0 14 2 19 5 13 2 -7 2 -19 0 -25z
m10 -50 c-3 -7 -5 -2 -5 12 0 14 2 19 5 13 2 -7 2 -19 0 -25z m755 -62 c9 6
46 -113 57 -179 7 -42 6 -47 -8 -42 -9 4 -38 11 -66 17 -27 5 -75 16 -105 23
l-55 12 -3 100 -3 99 88 -17 c48 -10 91 -15 95 -13z m385 -32 c-3 -3 -12 -4
-19 -1 -8 3 -5 6 6 6 11 1 17 -2 13 -5z m-855 -16 c-9 -9 -15 -9 -24 0 -9 9
-7 12 12 12 19 0 21 -3 12 -12z m871 -15 c-7 -2 -19 -2 -25 0 -7 3 -2 5 12 5
14 0 19 -2 13 -5z m-813 -223 c0 -5 -2 -10 -4 -10 -3 0 -8 5 -11 10 -3 6 -1
10 4 10 6 0 11 -4 11 -10z m584 -31 c-11 -18 -24 -8 -24 19 1 26 1 26 15 8 8
-10 12 -23 9 -27z m-77 -36 c-3 -3 -16 3 -29 12 -15 11 -17 15 -5 12 10 -4 17
-1 17 6 0 7 5 4 11 -6 6 -10 8 -21 6 -24z m-3990 -15 c-3 -8 -6 -5 -6 6 -1 11
2 17 5 13 3 -3 4 -12 1 -19z m5463 -58 c0 -5 -2 -10 -4 -10 -3 0 -8 5 -11 10
-3 6 -1 10 4 10 6 0 11 -4 11 -10z m-1035 -20 c-10 -11 -23 -20 -28 -20 -6 0
-2 9 8 20 10 11 23 20 28 20 6 0 2 -9 -8 -20z m153 -1 c12 -5 22 -15 22 -24 0
-8 3 -15 8 -15 4 0 5 -29 4 -65 -4 -66 -10 -76 -32 -50 -7 8 -29 19 -49 25
-20 5 -56 28 -80 52 l-44 42 32 28 c28 25 37 27 74 22 23 -4 52 -11 65 -15z
m112 -37 c0 -7 -4 -10 -10 -7 -5 3 -10 16 -10 28 0 18 2 19 10 7 5 -8 10 -21
10 -28z m-30 -41 c0 -56 -18 -54 -21 3 -3 47 -2 54 9 39 6 -9 12 -28 12 -42z
m-183 -923 c-3 -8 -6 -5 -6 6 -1 11 2 17 5 13 3 -3 4 -12 1 -19z m-2522 -238
c-3 -5 -15 -10 -26 -10 -11 0 -17 5 -14 10 3 6 15 10 26 10 11 0 17 -4 14 -10z
m282 -62 c-3 -8 -6 -5 -6 6 -1 11 2 17 5 13 3 -3 4 -12 1 -19z m470 -50 c-3
-8 -6 -5 -6 6 -1 11 2 17 5 13 3 -3 4 -12 1 -19z m2680 -80 c-3 -8 -6 -5 -6 6
-1 11 2 17 5 13 3 -3 4 -12 1 -19z m-2560 -160 c-3 -8 -6 -5 -6 6 -1 11 2 17
5 13 3 -3 4 -12 1 -19z m-700 -70 c-3 -7 -5 -2 -5 12 0 14 2 19 5 13 2 -7 2
-19 0 -25z m2099 -785 c30 -26 54 -55 54 -65 0 -10 9 -31 20 -46 11 -15 23
-42 26 -60 6 -30 4 -34 -25 -45 -17 -6 -31 -16 -31 -22 0 -5 -5 -3 -10 5 -9
13 -10 13 -10 0 0 -13 -2 -13 -9 -1 -7 11 -12 4 -20 -25 -6 -21 -11 -47 -11
-56 0 -21 1 -21 -75 -4 -33 8 -61 13 -63 11 -5 -5 -21 -77 -22 -96 0 -11 15
-20 47 -29 59 -14 48 -22 -63 -44 -105 -21 -107 -21 -101 7 18 83 58 277 73
352 21 108 21 109 64 140 55 38 92 33 156 -22z m364 -330 c12 -27 30 -56 38
-65 13 -16 13 -18 -2 -24 -17 -6 -52 -62 -48 -76 1 -5 -3 -8 -9 -8 -6 0 -8 9
-3 23 10 31 34 67 46 67 5 0 6 5 3 10 -3 6 -11 10 -16 10 -6 0 -8 -4 -5 -9 3
-5 -1 -14 -9 -21 -8 -6 -19 -28 -26 -48 -6 -20 -16 -42 -21 -49 -10 -13 -38
-7 -38 9 0 6 7 8 15 4 19 -7 19 11 0 30 -11 12 -12 20 -3 40 l12 25 13 -23
c13 -22 13 -22 7 6 -6 24 -4 28 9 23 9 -3 19 -2 22 3 4 6 -1 10 -10 10 -24 0
-31 31 -10 46 14 10 15 14 4 14 -13 0 -59 -82 -59 -105 0 -6 -9 -18 -20 -28
-11 -9 -20 -15 -20 -12 0 11 94 195 100 195 4 0 17 -21 30 -47z m-490 -53 c0
-5 -2 -10 -4 -10 -3 0 -8 5 -11 10 -3 6 -1 10 4 10 6 0 11 -4 11 -10z m97 -45
c0 -8 -6 -15 -13 -15 -8 0 -11 6 -8 15 4 8 9 15 13 15 4 0 8 -7 8 -15z m263
-69 c0 -3 -4 -8 -10 -11 -5 -3 -10 -1 -10 4 0 6 5 11 10 11 6 0 10 -2 10 -4z
m158 -30 c-13 -14 -28 -12 -28 5 0 5 9 9 20 9 17 0 19 -2 8 -14z m81 -22 c14
-12 -19 -1 -35 12 -18 14 -18 14 6 3 14 -6 27 -13 29 -15z m-276 -14 c-3 -12
-8 -19 -11 -16 -5 6 5 36 12 36 2 0 2 -9 -1 -20z m187 7 c0 -12 -41 -49 -47
-43 -4 4 3 16 17 26 26 20 30 22 30 17z m45 -27 c3 -5 1 -10 -4 -10 -6 0 -11
5 -11 10 0 6 2 10 4 10 3 0 8 -4 11 -10z m32 -4 c-4 -9 1 -17 11 -19 16 -4 16
-5 0 -6 -19 -1 -32 14 -23 29 9 15 18 12 12 -4z m-149 -43 c-9 -10 -18 -27
-21 -38 -5 -20 -5 -20 -6 0 -1 22 28 70 37 61 3 -3 -2 -14 -10 -23z m82 -3 c0
-5 -9 -6 -20 -3 -11 3 -20 9 -20 13 0 5 9 6 20 3 11 -3 20 -9 20 -13z m140 -1
c0 -6 -4 -7 -10 -4 -5 3 -10 11 -10 16 0 6 5 7 10 4 6 -3 10 -11 10 -16z m-76
-16 c3 -7 16 -18 28 -24 22 -9 22 -9 -2 -3 -14 3 -35 8 -47 11 -42 10 -88 -6
-105 -35 -8 -15 -14 -33 -12 -40 1 -7 0 -8 -3 -2 -2 5 -9 10 -14 10 -6 0 -7
-4 -4 -10 3 -5 0 -10 -8 -10 -12 0 -13 4 -4 25 7 13 14 20 15 15 2 -6 14 4 26
22 12 18 27 34 34 34 7 1 26 2 43 3 16 0 28 5 25 9 -3 5 1 9 9 9 8 0 16 -6 19
-14z m-134 -17 c0 -3 -4 -8 -10 -11 -5 -3 -10 -1 -10 4 0 6 5 11 10 11 6 0 10
-2 10 -4z m60 -59 c-14 -6 -28 -16 -32 -22 -9 -12 -10 -3 -3 17 3 8 18 14 33
15 l27 2 -25 -12z m-140 -37 c0 -5 -5 -10 -11 -10 -5 0 -7 5 -4 10 3 6 8 10
11 10 2 0 4 -4 4 -10z m148 -14 c6 -4 21 -2 32 4 13 7 20 7 20 0 0 -5 -5 -10
-11 -10 -6 0 -9 -7 -5 -15 7 -20 -4 -19 -34 2 -14 10 -25 16 -25 13 0 -2 -9 1
-20 8 -19 10 -18 11 5 8 14 -1 31 -6 38 -10z m117 -46 c3 -5 1 -10 -4 -10 -6
0 -11 5 -11 10 0 6 2 10 4 10 3 0 8 -4 11 -10z m-855 -95 c24 -25 39 -45 32
-45 -7 0 -12 -9 -12 -20 0 -11 -4 -20 -10 -20 -5 0 -14 -15 -19 -32 -5 -18
-10 -27 -10 -20 -2 31 -31 -18 -32 -55 l-2 -38 -8 45 c-9 56 -11 214 -2 223
11 12 18 8 63 -38z m-453 -1171 c-3 -3 -12 -4 -19 -1 -8 3 -5 6 6 6 11 1 17
-2 13 -5z m-42 -10 c-23 -9 -155 -20 -155 -13 0 4 21 10 48 12 69 5 118 6 107
1z m-124 -145 c-13 -11 -26 -17 -29 -14 -8 8 20 35 37 35 12 -1 11 -5 -8 -21z
m-113 -412 c5 -24 -24 -21 -31 4 -4 15 -1 19 11 17 9 -2 18 -11 20 -21z"/>
<path d="M6031 2674 c-7 -41 -11 -78 -8 -80 2 -2 10 30 17 71 7 41 11 78 8 80
-3 3 -11 -29 -17 -71z"/>
<path d="M4115 7837 c-16 -7 -32 -14 -35 -17 -13 -15 -80 -51 -80 -43 -1 11
-48 -105 -59 -144 -11 -39 1 -53 48 -53 20 0 74 -13 121 -30 117 -40 188 -40
261 0 67 37 104 37 192 3 91 -36 113 -28 140 49 l20 56 -29 25 c-16 14 -56 39
-89 56 -54 27 -72 31 -177 35 -116 5 -118 5 -164 40 -50 39 -90 45 -149 23z"/>
<path d="M5581 7684 c-30 -21 -81 -102 -81 -128 0 -19 1 -19 20 2 22 23 35 27
44 13 3 -5 27 -7 53 -6 l48 3 3 47 c5 74 -35 105 -87 69z"/>
<path d="M3181 7446 c-8 -10 -8 -16 3 -25 11 -9 14 -7 14 14 0 29 -2 30 -17
11z"/>
<path d="M3160 7411 c0 -5 7 -15 17 -22 15 -13 15 -12 4 9 -12 23 -21 28 -21
13z"/>
<path d="M8555 7334 c-11 -2 -76 -8 -145 -14 -324 -25 -487 -43 -510 -53 -20
-10 -26 -22 -33 -66 -4 -34 -4 -58 2 -64 13 -13 74 -34 124 -42 l39 -7 -6 -44
c-3 -24 -9 -64 -12 -89 -7 -50 -9 -49 86 -47 26 1 40 -2 32 -7 -17 -10 28 -31
93 -41 28 -5 129 -27 225 -49 96 -22 178 -41 183 -41 4 0 7 128 7 285 l0 285
-32 -1 c-18 -1 -42 -3 -53 -5z"/>
<path d="M4604 7053 c3 -16 16 -22 16 -8 0 3 0 10 0 15 0 6 -4 10 -9 10 -5 0
-8 -8 -7 -17z"/>
<path d="M4440 6960 c0 -5 7 -7 15 -4 8 4 15 8 15 10 0 2 -7 4 -15 4 -8 0 -15
-4 -15 -10z"/>
<path d="M5353 6953 c9 -2 25 -2 35 0 9 3 1 5 -18 5 -19 0 -27 -2 -17 -5z"/>
<path d="M7198 5997 c-54 -6 -98 -14 -98 -18 0 -5 3 -9 8 -9 26 0 266 31 270
35 7 7 -65 4 -180 -8z"/>
<path d="M6508 5705 c31 -26 52 -32 52 -14 0 9 -58 39 -75 39 -4 0 7 -11 23
-25z"/>
<path d="M7370 5699 c-7 -11 -10 -23 -7 -25 2 -2 9 7 15 21 14 30 7 33 -8 4z"/>
<path d="M6598 5683 c7 -3 16 -2 19 1 4 3 -2 6 -13 5 -11 0 -14 -3 -6 -6z"/>
<path d="M6541 5661 c-10 -6 -10 -10 -1 -16 13 -8 24 -1 19 14 -3 6 -10 7 -18
2z"/>
<path d="M6698 5643 c7 -3 16 -2 19 1 4 3 -2 6 -13 5 -11 0 -14 -3 -6 -6z"/>
<path d="M6625 5630 c27 -12 43 -12 25 0 -8 5 -22 9 -30 9 -10 0 -8 -3 5 -9z"/>
<path d="M6938 5593 c7 -3 16 -2 19 1 4 3 -2 6 -13 5 -11 0 -14 -3 -6 -6z"/>
<path d="M6980 5560 c0 -5 5 -10 11 -10 5 0 7 5 4 10 -3 6 -8 10 -11 10 -2 0
-4 -4 -4 -10z"/>
<path d="M7386 5542 c-4 -7 0 -19 8 -28 17 -17 19 -11 7 20 -5 14 -10 16 -15
8z"/>
<path d="M6060 5511 c0 -10 25 -21 48 -21 12 1 10 5 -8 15 -29 17 -40 18 -40
6z"/>
<path d="M7402 5470 c0 -14 2 -19 5 -12 2 6 2 18 0 25 -3 6 -5 1 -5 -13z"/>
<path d="M6680 5367 c-22 -17 -11 -62 15 -62 16 0 20 6 18 28 -1 15 2 27 8 27
5 0 9 5 9 10 0 14 -32 12 -50 -3z m23 -48 c-7 -7 -12 -3 -15 16 -5 25 -4 25
10 11 12 -11 13 -19 5 -27z"/>
<path d="M6800 5350 c0 -5 -9 -10 -20 -10 -15 0 -20 -7 -20 -29 0 -34 10 -39
73 -33 38 3 47 8 47 23 0 11 7 19 16 19 8 0 12 5 9 10 -3 6 -24 10 -46 10 -21
0 -39 5 -39 10 0 6 -4 10 -10 10 -5 0 -10 -4 -10 -10z m44 -39 c8 -13 -3 -19
-24 -14 -11 3 -17 9 -14 14 7 11 31 12 38 0z"/>
<path d="M7106 5292 c-3 -4 4 -9 15 -9 23 -2 25 3 4 10 -8 4 -16 3 -19 -1z"/>
<path d="M6930 5263 c14 -3 29 -10 33 -17 6 -7 7 -6 4 4 -2 8 -16 16 -33 17
-25 1 -26 0 -4 -4z"/>
<path d="M7086 5254 c-9 -24 -8 -25 13 -12 11 7 17 16 15 20 -8 13 -21 9 -28
-8z"/>
<path d="M7200 5250 c0 -5 4 -10 9 -10 6 0 13 5 16 10 3 6 -1 10 -9 10 -9 0
-16 -4 -16 -10z"/>
<path d="M7155 5230 c3 -5 15 -10 26 -10 11 0 17 5 14 10 -3 6 -15 10 -26 10
-11 0 -17 -4 -14 -10z"/>
<path d="M7301 5214 c0 -11 3 -14 6 -6 3 7 2 16 -1 19 -3 4 -6 -2 -5 -13z"/>
<path d="M8081 3103 c-1 -6 -4 -20 -7 -30 -5 -17 -5 -17 6 0 6 10 9 23 6 30
-3 9 -5 9 -5 0z"/>
<path d="M8112 3060 c0 -14 2 -19 5 -12 2 6 2 18 0 25 -3 6 -5 1 -5 -13z"/>
<path d="M8018 3063 c7 -3 16 -2 19 1 4 3 -2 6 -13 5 -11 0 -14 -3 -6 -6z"/>
<path d="M8228 3003 c7 -3 16 -2 19 1 4 3 -2 6 -13 5 -11 0 -14 -3 -6 -6z"/>
<path d="M8268 2993 c7 -3 16 -2 19 1 4 3 -2 6 -13 5 -11 0 -14 -3 -6 -6z"/>
<path d="M8345 2991 c-3 -5 -1 -12 5 -16 5 -3 10 1 10 9 0 18 -6 21 -15 7z"/>
<path d="M8385 2960 c27 -12 43 -12 25 0 -8 5 -22 9 -30 9 -10 0 -8 -3 5 -9z"/>
<path d="M8592 2920 c0 -14 2 -19 5 -12 2 6 2 18 0 25 -3 6 -5 1 -5 -13z"/>
<path d="M8281 2914 c0 -11 3 -14 6 -6 3 7 2 16 -1 19 -3 4 -6 -2 -5 -13z"/>
<path d="M8302 2858 c-11 -41 -9 -44 31 -56 17 -5 58 -18 90 -27 32 -9 60 -15
63 -13 2 3 -37 17 -87 33 l-91 28 5 33 c7 43 0 44 -11 2z"/>
<path d="M8261 2854 c0 -11 3 -14 6 -6 3 7 2 16 -1 19 -3 4 -6 -2 -5 -13z"/>
<path d="M8576 2845 c-3 -9 -6 -22 -5 -28 0 -7 5 -1 10 12 5 13 8 26 5 28 -2
2 -6 -3 -10 -12z"/>
<path d="M8521 2794 c0 -11 3 -14 6 -6 3 7 2 16 -1 19 -3 4 -6 -2 -5 -13z"/>
<path d="M8554 2776 c-3 -14 -3 -29 0 -35 7 -11 77 -33 84 -26 2 2 -9 7 -24
11 -42 10 -56 24 -49 51 3 13 3 23 0 23 -2 0 -7 -11 -11 -24z"/>
<path d="M8632 2550 c0 -14 2 -19 5 -12 2 6 2 18 0 25 -3 6 -5 1 -5 -13z"/>
<path d="M8632 2460 c0 -14 2 -19 5 -12 2 6 2 18 0 25 -3 6 -5 1 -5 -13z"/>
<path d="M8621 2423 c-1 -6 -4 -20 -7 -30 -5 -17 -5 -17 6 0 6 10 9 23 6 30
-3 9 -5 9 -5 0z"/>
<path d="M3422 1090 c0 -19 2 -27 5 -17 2 9 2 25 0 35 -3 9 -5 1 -5 -18z"/>
<path d="M3568 1113 c6 -2 18 -2 25 0 6 3 1 5 -13 5 -14 0 -19 -2 -12 -5z"/>
<path d="M3665 1070 c4 -6 11 -7 17 -4 7 5 9 0 6 -14 -4 -12 -2 -22 2 -22 5 0
14 -2 22 -5 8 -3 18 6 25 25 l11 30 -44 0 c-28 0 -43 -4 -39 -10z"/>
<path d="M4256 1061 c-3 -5 1 -11 9 -15 9 -3 15 0 15 9 0 16 -16 20 -24 6z"/>
<path d="M3812 1048 c2 -6 10 -13 16 -14 7 -1 8 0 2 3 -5 2 -8 9 -4 14 3 5 0
9 -6 9 -7 0 -10 -5 -8 -12z"/>
<path d="M3795 1010 c-3 -5 -1 -10 4 -10 6 0 11 5 11 10 0 6 -2 10 -4 10 -3 0
-8 -4 -11 -10z"/>
<path d="M4020 936 c0 -14 -11 -37 -25 -52 -14 -15 -25 -30 -25 -34 0 -4 -12
-13 -27 -20 -16 -8 -35 -20 -43 -26 -43 -34 -133 -46 -390 -50 -145 -3 -259
-9 -264 -14 -6 -6 -24 -11 -40 -12 -17 -1 16 -5 74 -9 58 -4 129 -11 158 -15
32 -4 62 -2 75 4 32 15 72 22 162 27 201 12 203 12 259 50 30 20 62 48 72 63
19 29 36 112 22 112 -4 0 -8 -11 -8 -24z"/>
<path d="M3083 723 c9 -2 25 -2 35 0 9 3 1 5 -18 5 -19 0 -27 -2 -17 -5z"/>
<path d="M3148 723 c7 -3 16 -2 19 1 4 3 -2 6 -13 5 -11 0 -14 -3 -6 -6z"/>
<path d="M2520 676 c-69 -18 -141 -41 -160 -51 -70 -36 -121 -124 -128 -221
l-4 -61 47 -36 c53 -41 99 -51 215 -50 682 6 796 9 840 26 l45 17 -85 -4 c-47
-2 -112 2 -145 9 -78 17 -196 24 -188 11 4 -6 -1 -6 -13 -2 -10 5 -77 12 -149
17 -149 10 -195 16 -195 28 0 5 -12 12 -27 16 -15 3 -40 17 -56 31 -16 13 -35
24 -43 24 -7 0 -17 12 -20 26 -5 19 -9 22 -15 12 -10 -15 -11 -9 -9 59 2 59
-14 74 -65 67 l-30 -5 25 15 c14 8 34 15 45 16 11 0 30 6 41 14 20 14 187 60
249 69 24 3 23 4 -10 5 -22 0 -96 -14 -165 -32z m-132 -124 c6 -9 12 -37 12
-64 0 -60 -29 -98 -74 -98 -43 0 -56 11 -63 54 -15 91 75 169 125 108z"/>
<path d="M1619 428 c-1 -2 -3 -13 -4 -26 -2 -18 0 -20 11 -11 16 13 19 39 4
39 -5 0 -11 -1 -11 -2z"/>
<path d="M4253 303 c9 -2 25 -2 35 0 9 3 1 5 -18 5 -19 0 -27 -2 -17 -5z"/>
<path d="M4320 296 c0 -6 49 -56 55 -56 15 0 1 22 -25 40 -16 12 -30 19 -30
16z"/>
<path d="M4291 184 c-12 -15 -21 -33 -21 -40 0 -8 -4 -14 -10 -14 -5 0 -10 -9
-10 -20 0 -11 -3 -20 -7 -19 -21 3 -53 -15 -53 -30 0 -9 -3 -26 -6 -38 -6 -22
-4 -23 74 -23 l80 0 20 34 c16 26 17 36 7 39 -7 3 -18 0 -24 -6 -7 -7 -11 -7
-11 -1 0 14 -30 14 -30 0 0 -6 -5 -4 -9 4 -11 18 4 106 20 126 6 8 9 14 6 14
-3 0 -15 -12 -26 -26z"/>
</g>
</svg>
